<svg width="20" height="20" viewBox="0 0 800 800" fill="none" xmlns="http://www.w3.org/2000/svg">
<path d="M522.889 440.222C510.556 440.259 498.257 438.917 486.222 436.222C493.237 451.381 498.602 467.25 502.222 483.556C508.889 483.556 515.778 483.556 522.889 483.556C545.551 483.52 568.06 479.844 589.556 472.667L568.889 432.444C553.984 437.133 538.506 439.75 522.889 440.222Z" fill="currentColor"/>
<path d="M408 397.111L400 388.667C382.65 371.704 369.269 351.111 360.816 328.366C352.364 305.621 349.05 281.288 351.111 257.111C353.381 224.728 365.3 193.767 385.333 168.222L383.556 200C383.533 205.563 385.598 210.932 389.342 215.047C393.086 219.161 398.237 221.722 403.778 222.222H405.778C411.341 222.245 416.71 220.18 420.824 216.436C424.939 212.692 427.499 207.54 428 202L435.556 111.111C435.822 107.892 435.383 104.654 434.27 101.622C433.157 98.5905 431.397 95.8377 429.111 93.5556C426.679 91.5851 423.857 90.1507 420.832 89.3465C417.807 88.5423 414.645 88.3864 411.556 88.8889L320.667 96.6667C314.773 97.1676 309.32 99.9894 305.506 104.511C301.693 109.033 299.832 114.884 300.333 120.778C300.834 126.671 303.656 132.125 308.178 135.938C312.699 139.751 318.551 141.612 324.444 141.111L353.111 138.667C326.117 172.444 310.208 213.731 307.556 256.889C305.259 286.466 309.371 316.19 319.611 344.032C329.851 371.875 345.977 397.181 366.889 418.222L373.778 426.444C402.175 455.791 418.513 494.733 419.556 535.556C420.74 554.047 418.786 572.605 413.778 590.444L453.778 610.667C462.383 585.618 465.785 559.076 463.778 532.667C462.413 482.175 442.566 433.941 408 397.111Z" fill="currentColor"/>
<path d="M720 398L693.111 400C717.647 368.244 732.78 330.24 736.789 290.309C740.797 250.379 733.521 210.126 715.787 174.126C698.054 138.126 670.574 107.824 636.473 86.6669C602.373 65.5096 563.02 54.3456 522.889 54.4445C500.221 54.4053 477.7 58.0837 456.222 65.3333L476.444 105.333C501.814 98.1484 528.505 96.9474 554.417 101.825C580.329 106.702 604.757 117.525 625.778 133.442C646.8 149.358 663.842 169.935 675.564 193.554C687.286 217.172 693.368 243.188 693.333 269.556C693.326 307.659 680.4 344.635 656.667 374.444L658.889 340.222C659.078 337.304 658.692 334.377 657.75 331.608C656.809 328.839 655.331 326.283 653.401 324.086C651.472 321.888 649.129 320.092 646.505 318.8C643.882 317.508 641.029 316.745 638.111 316.556C635.193 316.366 632.266 316.753 629.497 317.694C626.728 318.636 624.172 320.114 621.974 322.043C619.777 323.972 617.981 326.316 616.689 328.939C615.397 331.563 614.634 334.415 614.444 337.333L608.222 428C608.046 431.216 608.571 434.432 609.76 437.424C610.949 440.417 612.775 443.116 615.111 445.333C617.108 447.36 619.499 448.958 622.135 450.028C624.772 451.097 627.6 451.617 630.444 451.556H632.667L723.333 442.222C726.257 441.945 729.097 441.09 731.688 439.708C734.28 438.326 736.572 436.445 738.432 434.171C740.292 431.898 741.682 429.279 742.524 426.465C743.365 423.651 743.64 420.699 743.333 417.778C742.716 412.12 739.952 406.915 735.611 403.236C731.27 399.556 725.682 397.682 720 398Z" fill="currentColor"/>
<path d="M90.4443 454.222H92.2221L183.111 446.444C186.029 446.196 188.87 445.376 191.471 444.03C194.072 442.684 196.383 440.839 198.271 438.6C200.159 436.361 201.588 433.772 202.476 430.981C203.363 428.19 203.692 425.252 203.444 422.333C203.196 419.415 202.376 416.574 201.03 413.973C199.684 411.372 197.839 409.061 195.6 407.173C193.361 405.285 190.772 403.856 187.981 402.969C185.19 402.081 182.251 401.752 179.333 402L148.444 404.667C177.539 383.203 212.733 371.601 248.889 371.556C261.069 371.629 273.208 372.969 285.111 375.556C278.131 360.404 272.84 344.531 269.333 328.222C262.667 328.222 255.778 328.222 248.889 328.222C201.476 328.151 155.374 343.779 117.778 372.667L120.444 343.556C120.687 340.635 120.35 337.696 119.453 334.907C118.556 332.117 117.115 329.533 115.215 327.302C113.315 325.072 110.992 323.239 108.381 321.909C105.77 320.58 102.922 319.78 99.9999 319.556C94.1374 319.063 88.3189 320.915 83.8199 324.706C79.3209 328.497 76.5087 333.917 75.9999 339.778L68.2221 430.444C67.9762 433.509 68.3687 436.591 69.3748 439.495C70.3809 442.4 71.9787 445.065 74.0673 447.32C76.1559 449.576 78.6897 451.374 81.5086 452.6C84.3276 453.826 87.3703 454.454 90.4443 454.444V454.222Z" fill="currentColor"/>
<path d="M409.333 627.333L318.444 633.333C312.551 633.716 307.051 636.425 303.154 640.863C299.257 645.302 297.284 651.106 297.667 657C298.05 662.894 300.758 668.394 305.197 672.29C309.635 676.187 315.44 678.161 321.333 677.778L355.556 675.333C330.388 695.561 300.018 708.265 267.944 711.981C235.87 715.698 203.399 710.276 174.273 696.34C145.147 682.404 120.552 660.522 103.322 633.215C86.0921 605.908 76.929 574.288 76.8889 542C77.049 526.964 79.2163 512.017 83.3333 497.556L44.4444 476.889C37.5601 498.061 34.0359 520.181 34 542.444C34.2607 582.689 45.7831 622.058 67.2627 656.092C88.7422 690.127 119.321 717.468 155.537 735.021C191.753 752.574 232.16 759.638 272.184 755.412C312.207 751.186 350.248 735.84 382 711.111L379.333 737.333C379.025 740.237 379.293 743.173 380.12 745.974C380.948 748.775 382.319 751.385 384.156 753.655C385.993 755.925 388.259 757.811 390.825 759.205C393.391 760.599 396.207 761.473 399.111 761.778H401.556C407.084 761.805 412.424 759.772 416.533 756.074C420.642 752.375 423.225 747.278 423.778 741.778L433.111 651.556C433.441 648.34 433.066 645.092 432.012 642.037C430.957 638.982 429.249 636.193 427.007 633.866C424.764 631.539 422.041 629.729 419.027 628.562C416.013 627.395 412.781 626.9 409.556 627.111L409.333 627.333Z" fill="currentColor"/>
</svg>
