<svg width="49" height="49" viewBox="0 0 49 49" fill="none" xmlns="http://www.w3.org/2000/svg">
<g clip-path="url(#clip0_422_131)">
<path d="M34.1875 3.0625V2.5625H33.6875H17.3925C17.6251 1.38632 18.6627 0.5 19.9062 0.5H36.5429L48.5 12.4571V39.8125C48.5 41.2284 47.3534 42.375 45.9375 42.375H35.7188V40.3125H45.9375H46.4375V39.8125V15.3125V14.8125H45.9375H34.1875V3.0625ZM36.25 12.25V12.75H36.75H44.6681H45.875L45.0217 11.8965L37.1036 3.97686L36.25 3.1231V4.33038V12.25ZM3.0625 6.625H3.06255L19.6991 6.62349L31.6562 18.5821V45.9375C31.6562 47.3534 30.5096 48.5 29.0938 48.5H3.0625C1.64661 48.5 0.5 47.3534 0.5 45.9375V9.1875C0.5 7.77298 1.64677 6.625 3.0625 6.625ZM29.0938 46.4375H29.5938V45.9375V21.4375V20.9375H29.0938H17.3438V9.1875V8.6875H16.8438H3.0625H2.5625V9.1875V45.9375V46.4375H3.0625H29.0938ZM19.4062 18.375V18.875H19.9062H27.8243H29.0313L28.1779 18.0215L20.2598 10.1019L19.4062 9.2481V10.4554V18.375Z" fill="#F5F5F5" fill-opacity="0.7" stroke="black"/>
</g>
<defs>
<clipPath id="clip0_422_131">
<rect width="49" height="49" fill="white"/>
</clipPath>
</defs>
</svg>
