<?xml version="1.0" encoding="utf-8"?><!-- Uploaded to: SVG Repo, www.svgrepo.com, Generator: SVG Repo Mixer Tools -->
<svg width="800px" height="800px" viewBox="0 0 24 24" fill="none" xmlns="http://www.w3.org/2000/svg">
<rect width="24" height="24" fill="white"/>
<path d="M3 6.47214C3 6.16165 3.07229 5.85542 3.21115 5.57771L4 4H9L10 6H20C20.5523 6 21 6.44772 21 7V9V19C21 19.5523 20.5523 20 20 20H4C3.44772 20 3 19.5523 3 19V9V6.47214Z" stroke="#000000" stroke-linecap="round" stroke-linejoin="round"/>
<path d="M4 20H20C20.5523 20 21 19.5523 21 19V11C21 9.89543 20.1046 9 19 9H5C3.89543 9 3 9.89543 3 11V19C3 19.5523 3.44772 20 4 20Z" stroke="#000000" stroke-linecap="round" stroke-linejoin="round"/>
</svg>