<svg xmlns="http://www.w3.org/2000/svg" xmlns:xlink="http://www.w3.org/1999/xlink" viewBox="0,0,256,256" width="50px" height="50px" fill-rule="nonzero"><g fill="#ffffff" fill-rule="nonzero" stroke="none" stroke-width="1" stroke-linecap="butt" stroke-linejoin="miter" stroke-miterlimit="10" stroke-dasharray="" stroke-dashoffset="0" font-family="none" font-weight="none" font-size="none" text-anchor="none" style="mix-blend-mode: normal"><g transform="scale(5.12,5.12)"><path d="M5,4c-1.64497,0 -3,1.35503 -3,3v9v2v25c0,1.64497 1.35503,3 3,3h40c1.64497,0 3,-1.35503 3,-3v-24v-3v-5c0,-1.64497 -1.35503,-3 -3,-3h-27c0.08657,0 -0.03101,0.00036 -0.27539,-0.28125c-0.24438,-0.28161 -0.54519,-0.74881 -0.85937,-1.25c-0.31418,-0.50119 -0.64346,-1.03596 -1.05859,-1.50586c-0.41514,-0.4699 -0.98789,-0.96289 -1.80664,-0.96289zM5,6h9c-0.06075,0 0.06114,0.00701 0.30859,0.28711c0.24746,0.2801 0.54864,0.74533 0.86133,1.24414c0.31269,0.49881 0.63651,1.03161 1.04297,1.5c0.40646,0.46839 0.96604,0.96875 1.78711,0.96875h27c0.56503,0 1,0.43497 1,1v2.1875c-0.31489,-0.11356 -0.64816,-0.1875 -1,-0.1875h-40c-0.35184,0 -0.68511,0.07394 -1,0.1875v-6.1875c0,-0.56503 0.43497,-1 1,-1zM5,15h40c0.56503,0 1,0.43497 1,1v3v24c0,0.56503 -0.43497,1 -1,1h-40c-0.56503,0 -1,-0.43497 -1,-1v-25v-2c0,-0.56503 0.43497,-1 1,-1z"></path></g></g></svg>