<svg width="800" height="800" viewBox="0 0 800 800" fill="none" xmlns="http://www.w3.org/2000/svg">
<path d="M400 691.667C335.933 691.58 274.515 666.09 229.213 620.787C183.911 575.483 158.422 514.067 158.333 450C158.333 443.37 160.967 437.01 165.656 432.323C170.344 427.633 176.703 425 183.333 425C189.964 425 196.323 427.633 201.011 432.323C205.7 437.01 208.333 443.37 208.333 450C208.333 487.907 219.574 524.963 240.635 556.483C261.696 588.003 291.63 612.57 326.652 627.077C361.673 641.583 400.214 645.38 437.393 637.983C474.573 630.59 508.724 612.333 535.53 585.53C562.334 558.723 580.59 524.573 587.983 487.393C595.38 450.213 591.583 411.673 577.077 376.653C562.57 341.63 538.003 311.696 506.483 290.635C474.963 269.574 437.907 258.333 400 258.333H316.667C310.036 258.333 303.678 255.699 298.989 251.011C294.301 246.323 291.667 239.964 291.667 233.333C291.667 226.703 294.301 220.344 298.989 215.656C303.678 210.967 310.036 208.333 316.667 208.333H400C464.093 208.333 525.563 233.795 570.883 279.116C616.207 324.437 641.667 385.907 641.667 450C641.667 514.093 616.207 575.563 570.883 620.883C525.563 666.207 464.093 691.667 400 691.667Z" fill="white"/>
<path d="M400 358.333C396.717 358.35 393.46 357.71 390.427 356.45C387.393 355.19 384.64 353.337 382.333 351L282.333 251.001C277.652 246.314 275.022 239.959 275.022 233.334C275.022 226.709 277.652 220.355 282.333 215.668L382.333 115.668C384.623 113.211 387.383 111.241 390.45 109.875C393.517 108.509 396.827 107.774 400.183 107.715C403.54 107.655 406.873 108.273 409.987 109.53C413.1 110.788 415.927 112.659 418.3 115.033C420.677 117.407 422.547 120.235 423.803 123.348C425.06 126.461 425.68 129.795 425.62 133.152C425.56 136.509 424.827 139.819 423.46 142.886C422.093 145.952 420.123 148.712 417.667 151.001L335.333 233.334L417.667 315.668C422.347 320.355 424.977 326.709 424.977 333.333C424.977 339.96 422.347 346.313 417.667 351C415.36 353.337 412.607 355.19 409.573 356.45C406.54 357.71 403.283 358.35 400 358.333Z" fill="white"/>
</svg>
