<svg width="61" height="61" viewBox="0 0 61 61" fill="none" xmlns="http://www.w3.org/2000/svg">
<path d="M30.4998 52.7397C25.6148 52.7331 20.9316 50.7894 17.4774 47.3351C14.0231 43.8807 12.0795 39.1977 12.0728 34.3126C12.0728 33.807 12.2736 33.3221 12.6311 32.9647C12.9886 32.6071 13.4734 32.4063 13.979 32.4063C14.4846 32.4063 14.9694 32.6071 15.3269 32.9647C15.6844 33.3221 15.8853 33.807 15.8853 34.3126C15.8853 37.203 16.7424 40.0285 18.3483 42.4319C19.9541 44.8353 22.2366 46.7085 24.9071 47.8147C27.5774 48.9208 30.5161 49.2103 33.3511 48.6463C36.1861 48.0826 38.79 46.6905 40.834 44.6467C42.8778 42.6027 44.2698 39.9988 44.8336 37.1638C45.3976 34.3288 45.1081 31.3902 44.0019 28.7199C42.8958 26.0494 41.0226 23.7669 38.6192 22.161C36.2158 20.5551 33.3902 19.698 30.4998 19.698H24.1457C23.6401 19.698 23.1552 19.4972 22.7977 19.1397C22.4403 18.7822 22.2394 18.2973 22.2394 17.7917C22.2394 17.2862 22.4403 16.8013 22.7977 16.4438C23.1552 16.0863 23.6401 15.8855 24.1457 15.8855H30.4998C35.387 15.8855 40.074 17.8269 43.5297 21.2827C46.9856 24.7384 48.9269 29.4255 48.9269 34.3126C48.9269 39.1997 46.9856 43.8868 43.5297 47.3424C40.074 50.7983 35.387 52.7397 30.4998 52.7397Z" fill="white"/>
<path d="M30.4998 27.3229C30.2494 27.3241 30.0011 27.2753 29.7698 27.1793C29.5385 27.0832 29.3286 26.9419 29.1527 26.7637L21.5277 19.1388C21.1707 18.7814 20.9702 18.2968 20.9702 17.7917C20.9702 17.2865 21.1707 16.802 21.5277 16.4446L29.1527 8.8196C29.3273 8.63231 29.5378 8.4821 29.7716 8.37791C30.0054 8.27373 30.2578 8.21771 30.5138 8.21319C30.7697 8.20866 31.0239 8.25576 31.2613 8.35163C31.4987 8.4475 31.7142 8.59019 31.8952 8.77121C32.0764 8.95223 32.219 9.16786 32.3148 9.4052C32.4106 9.64257 32.4579 9.89681 32.4533 10.1528C32.4487 10.4087 32.3928 10.6611 32.2886 10.895C32.1844 11.1288 32.0342 11.3393 31.8469 11.5138L25.569 17.7917L31.8469 24.0696C32.2037 24.427 32.4043 24.9115 32.4043 25.4166C32.4043 25.9219 32.2037 26.4063 31.8469 26.7637C31.671 26.9419 31.461 27.0832 31.2298 27.1793C30.9985 27.2753 30.7501 27.3241 30.4998 27.3229Z" fill="white"/>
</svg>
