<svg width="56" height="53" viewBox="0 0 56 53" fill="none" xmlns="http://www.w3.org/2000/svg">
<path d="M19.54 26.3013C19.54 22.0294 23.2074 18.52 27.79 18.52C32.3728 18.52 36.04 22.0294 36.04 26.3013C36.04 30.5732 32.3728 34.0825 27.79 34.0825C23.2074 34.0825 19.54 30.5732 19.54 26.3013ZM27.79 20.8325C24.6408 20.8325 22.04 23.2555 22.04 26.3013C22.04 29.3471 24.6408 31.77 27.79 31.77C30.9393 31.77 33.54 29.3471 33.54 26.3013C33.54 23.2555 30.9393 20.8325 27.79 20.8325Z" fill="#F5F5F5" fill-opacity="0.7" stroke="white"/>
<mask id="path-2-inside-1_411_34" fill="white">
<path fill-rule="evenodd" clip-rule="evenodd" d="M27.9411 2.76038C26.9042 2.76035 26.0383 2.76035 25.3276 2.80624C24.5877 2.85403 23.8888 2.95703 23.2113 3.22265C21.639 3.83902 20.3898 5.02125 19.7386 6.50929C19.3995 7.28397 19.3077 8.10039 19.2727 8.98779C19.2445 9.70115 18.8641 10.2963 18.3027 10.6031C17.7414 10.9098 17.0065 10.924 16.3397 10.5904C15.5102 10.1755 14.7172 9.84248 13.8388 9.73303C12.1515 9.5228 10.4451 9.95555 9.09501 10.936C8.51317 11.3586 8.06946 11.8799 7.65581 12.4625C7.25842 13.0221 6.82556 13.7317 6.30703 14.5817L6.24811 14.6783C5.72955 15.5283 5.29667 16.2379 4.98328 16.8434C4.65706 17.4738 4.40186 18.0981 4.30612 18.7863C4.08399 20.3831 4.54123 21.9981 5.57721 23.276C6.11649 23.9409 6.81754 24.4246 7.6119 24.8969C8.25072 25.2768 8.60522 25.8863 8.60517 26.5C8.60515 27.1134 8.25065 27.7229 7.6119 28.1028C6.81744 28.5751 6.11632 29.0588 5.577 29.7239C4.541 31.0016 4.08378 32.6166 4.30589 34.2134C4.40163 34.9016 4.65682 35.5261 4.98305 36.1563C5.29644 36.7619 5.72932 37.4714 6.24785 38.3214L6.30679 38.4181C6.82533 39.2681 7.25819 39.9776 7.65558 40.5372C8.06923 41.1198 8.51294 41.6412 9.09478 42.0636C10.4449 43.0441 12.1513 43.477 13.8385 43.2667C14.7169 43.1572 15.5098 42.8244 16.3393 42.4095C17.0063 42.0758 17.7412 42.0899 18.3026 42.3969C18.864 42.7036 19.2445 43.2987 19.2727 44.0123C19.3077 44.8996 19.3996 45.716 19.7386 46.4907C20.3898 47.9786 21.639 49.161 23.2113 49.7773C23.8888 50.043 24.5877 50.1459 25.3276 50.1936C26.0383 50.2395 26.9042 50.2395 27.9411 50.2395H28.059C29.0961 50.2395 29.9618 50.2395 30.6728 50.1936C31.4127 50.1459 32.1115 50.043 32.7891 49.7773C34.3613 49.161 35.6106 47.9786 36.2618 46.4907C36.6008 45.716 36.6925 44.8996 36.7275 44.012C36.7558 43.2987 37.1361 42.7036 37.6975 42.3966C38.2589 42.0899 38.9939 42.0758 39.6608 42.4092C40.4903 42.8242 41.2831 43.1572 42.1616 43.2665C43.8489 43.4767 45.5552 43.0441 46.9053 42.0636C47.4872 41.641 47.9308 41.1198 48.3445 40.5372C48.7419 39.9776 49.1747 39.2681 49.6932 38.4181L49.7522 38.3214C50.2707 37.4714 50.7037 36.7616 51.0171 36.1561C51.3433 35.5259 51.5983 34.9016 51.6942 34.2134C51.9164 32.6164 51.459 31.0014 50.423 29.7237C49.8838 29.0585 49.1826 28.5751 48.3884 28.1028C47.7495 27.7229 47.3951 27.1134 47.3951 26.4997C47.3951 25.8863 47.7495 25.277 48.3881 24.8971C49.1829 24.4248 49.884 23.9414 50.4233 23.276C51.4593 21.9982 51.9166 20.3833 51.6945 18.7864C51.5986 18.0983 51.3435 17.4739 51.0173 16.8436C50.704 16.2381 50.2711 15.5286 49.7524 14.6786L49.6936 14.582C49.1749 13.7319 48.7421 13.0222 48.3447 12.4626C47.931 11.8801 47.4875 11.3587 46.9055 10.9362C45.5555 9.9557 43.8491 9.52296 42.1616 9.73319C41.2834 9.84263 40.4905 10.1756 39.661 10.5905C38.9941 10.9241 38.2591 10.9099 37.6977 10.6031C37.1363 10.2964 36.7558 9.7011 36.7275 8.98768C36.6925 8.1003 36.6008 7.28393 36.2618 6.50929C35.6106 5.02125 34.3613 3.83902 32.7891 3.22265C32.1115 2.95703 31.4127 2.85403 30.6728 2.80624C29.9618 2.76035 29.0961 2.76035 28.059 2.76038H27.9411ZM24.5506 6.283C24.7307 6.21242 25.0042 6.14734 25.5658 6.11106C26.1433 6.07378 26.889 6.07288 28.0002 6.07288C29.1113 6.07288 29.857 6.07378 30.4343 6.11106C30.9962 6.14734 31.2696 6.21242 31.4495 6.283C32.1642 6.56317 32.7322 7.10055 33.028 7.77694C33.1216 7.99028 33.1988 8.32288 33.2301 9.11148C33.2992 10.8613 34.2535 12.5461 35.9477 13.4719C37.6417 14.3976 39.6608 14.3373 41.2964 13.5191C42.0335 13.1504 42.3768 13.0475 42.6185 13.0174C43.3855 12.9218 44.1611 13.1185 44.7747 13.5642C44.9294 13.6764 45.1257 13.8681 45.4397 14.3103C45.7627 14.7649 46.1362 15.3757 46.6918 16.2864C47.2474 17.1972 47.6195 17.8088 47.8741 18.3007C48.1217 18.7792 48.1989 19.0359 48.2243 19.2188C48.3254 19.9446 48.1175 20.6787 47.6466 21.2595C47.498 21.4428 47.2324 21.6725 46.5261 22.0923C44.9598 23.024 43.8953 24.6485 43.8951 26.4997C43.8951 28.3512 44.9595 29.9759 46.5261 30.9076C47.2322 31.3274 47.4977 31.557 47.6464 31.7403C48.1172 32.3211 48.3251 33.0552 48.2241 33.7811C48.1987 33.9639 48.1214 34.2205 47.8739 34.6991C47.6193 35.1909 47.2471 35.8026 46.6916 36.7133C46.136 37.624 45.7624 38.2348 45.4395 38.6895C45.1254 39.1316 44.9292 39.3233 44.7745 39.4355C44.1608 39.8813 43.3852 40.0779 42.6183 39.9825C42.3765 39.9522 42.0333 39.8493 41.2962 39.4808C39.6605 38.6624 37.6415 38.6023 35.9473 39.528C34.2535 40.4538 33.2992 42.1385 33.2301 43.8884C33.1988 44.677 33.1216 45.0095 33.028 45.2231C32.7322 45.8993 32.1642 46.4368 31.4495 46.717C31.2696 46.7875 30.9962 46.8526 30.4343 46.8888C29.857 46.9262 29.1113 46.927 28.0002 46.927C26.889 46.927 26.1433 46.9262 25.5658 46.8888C25.0042 46.8526 24.7307 46.7875 24.5506 46.717C23.8361 46.4368 23.2682 45.8993 22.9722 45.2231C22.8788 45.0095 22.8014 44.677 22.7702 43.8884C22.7011 42.1387 21.7468 40.4538 20.0526 39.528C18.3585 38.6023 16.3396 38.6626 14.7039 39.4808C13.9667 39.8496 13.6236 39.9525 13.3817 39.9825C12.6148 40.0781 11.8391 39.8814 11.2255 39.4357C11.0709 39.3235 10.8745 39.1318 10.5605 38.6895C10.2377 38.235 9.86401 37.6242 9.30844 36.7135C8.75285 35.8028 8.38082 35.1911 8.12623 34.6993C7.87857 34.2207 7.80139 33.9639 7.77595 33.7811C7.67499 33.0552 7.88282 32.3211 8.35373 31.7403C8.50227 31.5573 8.76792 31.3274 9.47397 30.9076C11.0405 29.9761 12.1051 28.3514 12.1052 26.5002C12.1053 24.6485 11.0407 23.0238 9.47399 22.0921C8.76811 21.6723 8.50248 21.4426 8.35394 21.2594C7.88305 20.6786 7.67522 19.9445 7.77619 19.2186C7.80162 19.0358 7.87881 18.7791 8.12647 18.3006C8.38106 17.8086 8.75308 17.197 9.30865 16.2863C9.86424 15.3755 10.2379 14.7648 10.5607 14.3102C10.8748 13.8679 11.0711 13.6763 11.2257 13.564C11.8394 13.1183 12.615 12.9216 13.3819 13.0172C13.6239 13.0473 13.9669 13.1502 14.7042 13.519C16.3399 14.3372 18.3586 14.3975 20.0527 13.4718C21.7468 12.5461 22.7011 10.8614 22.7702 9.11159C22.8014 8.32293 22.8788 7.99031 22.9722 7.77694C23.2682 7.10055 23.8361 6.56317 24.5506 6.283Z"/>
</mask>
<path fill-rule="evenodd" clip-rule="evenodd" d="M27.9411 2.76038C26.9042 2.76035 26.0383 2.76035 25.3276 2.80624C24.5877 2.85403 23.8888 2.95703 23.2113 3.22265C21.639 3.83902 20.3898 5.02125 19.7386 6.50929C19.3995 7.28397 19.3077 8.10039 19.2727 8.98779C19.2445 9.70115 18.8641 10.2963 18.3027 10.6031C17.7414 10.9098 17.0065 10.924 16.3397 10.5904C15.5102 10.1755 14.7172 9.84248 13.8388 9.73303C12.1515 9.5228 10.4451 9.95555 9.09501 10.936C8.51317 11.3586 8.06946 11.8799 7.65581 12.4625C7.25842 13.0221 6.82556 13.7317 6.30703 14.5817L6.24811 14.6783C5.72955 15.5283 5.29667 16.2379 4.98328 16.8434C4.65706 17.4738 4.40186 18.0981 4.30612 18.7863C4.08399 20.3831 4.54123 21.9981 5.57721 23.276C6.11649 23.9409 6.81754 24.4246 7.6119 24.8969C8.25072 25.2768 8.60522 25.8863 8.60517 26.5C8.60515 27.1134 8.25065 27.7229 7.6119 28.1028C6.81744 28.5751 6.11632 29.0588 5.577 29.7239C4.541 31.0016 4.08378 32.6166 4.30589 34.2134C4.40163 34.9016 4.65682 35.5261 4.98305 36.1563C5.29644 36.7619 5.72932 37.4714 6.24785 38.3214L6.30679 38.4181C6.82533 39.2681 7.25819 39.9776 7.65558 40.5372C8.06923 41.1198 8.51294 41.6412 9.09478 42.0636C10.4449 43.0441 12.1513 43.477 13.8385 43.2667C14.7169 43.1572 15.5098 42.8244 16.3393 42.4095C17.0063 42.0758 17.7412 42.0899 18.3026 42.3969C18.864 42.7036 19.2445 43.2987 19.2727 44.0123C19.3077 44.8996 19.3996 45.716 19.7386 46.4907C20.3898 47.9786 21.639 49.161 23.2113 49.7773C23.8888 50.043 24.5877 50.1459 25.3276 50.1936C26.0383 50.2395 26.9042 50.2395 27.9411 50.2395H28.059C29.0961 50.2395 29.9618 50.2395 30.6728 50.1936C31.4127 50.1459 32.1115 50.043 32.7891 49.7773C34.3613 49.161 35.6106 47.9786 36.2618 46.4907C36.6008 45.716 36.6925 44.8996 36.7275 44.012C36.7558 43.2987 37.1361 42.7036 37.6975 42.3966C38.2589 42.0899 38.9939 42.0758 39.6608 42.4092C40.4903 42.8242 41.2831 43.1572 42.1616 43.2665C43.8489 43.4767 45.5552 43.0441 46.9053 42.0636C47.4872 41.641 47.9308 41.1198 48.3445 40.5372C48.7419 39.9776 49.1747 39.2681 49.6932 38.4181L49.7522 38.3214C50.2707 37.4714 50.7037 36.7616 51.0171 36.1561C51.3433 35.5259 51.5983 34.9016 51.6942 34.2134C51.9164 32.6164 51.459 31.0014 50.423 29.7237C49.8838 29.0585 49.1826 28.5751 48.3884 28.1028C47.7495 27.7229 47.3951 27.1134 47.3951 26.4997C47.3951 25.8863 47.7495 25.277 48.3881 24.8971C49.1829 24.4248 49.884 23.9414 50.4233 23.276C51.4593 21.9982 51.9166 20.3833 51.6945 18.7864C51.5986 18.0983 51.3435 17.4739 51.0173 16.8436C50.704 16.2381 50.2711 15.5286 49.7524 14.6786L49.6936 14.582C49.1749 13.7319 48.7421 13.0222 48.3447 12.4626C47.931 11.8801 47.4875 11.3587 46.9055 10.9362C45.5555 9.9557 43.8491 9.52296 42.1616 9.73319C41.2834 9.84263 40.4905 10.1756 39.661 10.5905C38.9941 10.9241 38.2591 10.9099 37.6977 10.6031C37.1363 10.2964 36.7558 9.7011 36.7275 8.98768C36.6925 8.1003 36.6008 7.28393 36.2618 6.50929C35.6106 5.02125 34.3613 3.83902 32.7891 3.22265C32.1115 2.95703 31.4127 2.85403 30.6728 2.80624C29.9618 2.76035 29.0961 2.76035 28.059 2.76038H27.9411ZM24.5506 6.283C24.7307 6.21242 25.0042 6.14734 25.5658 6.11106C26.1433 6.07378 26.889 6.07288 28.0002 6.07288C29.1113 6.07288 29.857 6.07378 30.4343 6.11106C30.9962 6.14734 31.2696 6.21242 31.4495 6.283C32.1642 6.56317 32.7322 7.10055 33.028 7.77694C33.1216 7.99028 33.1988 8.32288 33.2301 9.11148C33.2992 10.8613 34.2535 12.5461 35.9477 13.4719C37.6417 14.3976 39.6608 14.3373 41.2964 13.5191C42.0335 13.1504 42.3768 13.0475 42.6185 13.0174C43.3855 12.9218 44.1611 13.1185 44.7747 13.5642C44.9294 13.6764 45.1257 13.8681 45.4397 14.3103C45.7627 14.7649 46.1362 15.3757 46.6918 16.2864C47.2474 17.1972 47.6195 17.8088 47.8741 18.3007C48.1217 18.7792 48.1989 19.0359 48.2243 19.2188C48.3254 19.9446 48.1175 20.6787 47.6466 21.2595C47.498 21.4428 47.2324 21.6725 46.5261 22.0923C44.9598 23.024 43.8953 24.6485 43.8951 26.4997C43.8951 28.3512 44.9595 29.9759 46.5261 30.9076C47.2322 31.3274 47.4977 31.557 47.6464 31.7403C48.1172 32.3211 48.3251 33.0552 48.2241 33.7811C48.1987 33.9639 48.1214 34.2205 47.8739 34.6991C47.6193 35.1909 47.2471 35.8026 46.6916 36.7133C46.136 37.624 45.7624 38.2348 45.4395 38.6895C45.1254 39.1316 44.9292 39.3233 44.7745 39.4355C44.1608 39.8813 43.3852 40.0779 42.6183 39.9825C42.3765 39.9522 42.0333 39.8493 41.2962 39.4808C39.6605 38.6624 37.6415 38.6023 35.9473 39.528C34.2535 40.4538 33.2992 42.1385 33.2301 43.8884C33.1988 44.677 33.1216 45.0095 33.028 45.2231C32.7322 45.8993 32.1642 46.4368 31.4495 46.717C31.2696 46.7875 30.9962 46.8526 30.4343 46.8888C29.857 46.9262 29.1113 46.927 28.0002 46.927C26.889 46.927 26.1433 46.9262 25.5658 46.8888C25.0042 46.8526 24.7307 46.7875 24.5506 46.717C23.8361 46.4368 23.2682 45.8993 22.9722 45.2231C22.8788 45.0095 22.8014 44.677 22.7702 43.8884C22.7011 42.1387 21.7468 40.4538 20.0526 39.528C18.3585 38.6023 16.3396 38.6626 14.7039 39.4808C13.9667 39.8496 13.6236 39.9525 13.3817 39.9825C12.6148 40.0781 11.8391 39.8814 11.2255 39.4357C11.0709 39.3235 10.8745 39.1318 10.5605 38.6895C10.2377 38.235 9.86401 37.6242 9.30844 36.7135C8.75285 35.8028 8.38082 35.1911 8.12623 34.6993C7.87857 34.2207 7.80139 33.9639 7.77595 33.7811C7.67499 33.0552 7.88282 32.3211 8.35373 31.7403C8.50227 31.5573 8.76792 31.3274 9.47397 30.9076C11.0405 29.9761 12.1051 28.3514 12.1052 26.5002C12.1053 24.6485 11.0407 23.0238 9.47399 22.0921C8.76811 21.6723 8.50248 21.4426 8.35394 21.2594C7.88305 20.6786 7.67522 19.9445 7.77619 19.2186C7.80162 19.0358 7.87881 18.7791 8.12647 18.3006C8.38106 17.8086 8.75308 17.197 9.30865 16.2863C9.86424 15.3755 10.2379 14.7648 10.5607 14.3102C10.8748 13.8679 11.0711 13.6763 11.2257 13.564C11.8394 13.1183 12.615 12.9216 13.3819 13.0172C13.6239 13.0473 13.9669 13.1502 14.7042 13.519C16.3399 14.3372 18.3586 14.3975 20.0527 13.4718C21.7468 12.5461 22.7011 10.8614 22.7702 9.11159C22.8014 8.32293 22.8788 7.99031 22.9722 7.77694C23.2682 7.10055 23.8361 6.56317 24.5506 6.283Z" fill="#F5F5F5" fill-opacity="0.7" stroke="white" stroke-width="2" mask="url(#path-2-inside-1_411_34)"/>
</svg>
