<svg width="49" height="49" viewBox="0 0 49 49" fill="none" xmlns="http://www.w3.org/2000/svg">
<path d="M46.2053 24.0357L45.7316 24.5L46.2053 24.9643C47.5296 26.262 48.35 28.0688 48.35 30.0682C48.35 34.0145 45.1509 37.2136 41.2045 37.2136H37.1135H36.085L36.5264 38.1426C36.9669 39.0697 37.2136 40.1074 37.2136 41.2045C37.2136 45.1509 34.0145 48.35 30.0682 48.35C28.0688 48.35 26.262 47.5296 24.9643 46.2053L24.5 45.7316L24.0357 46.2053C22.738 47.5296 20.9312 48.35 18.9318 48.35C14.9855 48.35 11.7864 45.1509 11.7864 41.2045V37.1135V36.085L10.8574 36.5264C9.9302 36.9669 8.89259 37.2136 7.79545 37.2136C3.84912 37.2136 0.65 34.0145 0.65 30.0682C0.65 28.0688 1.47043 26.262 2.79472 24.9642L3.26845 24.5L2.79472 24.0358C1.47043 22.738 0.65 20.9312 0.65 18.9318C0.65 14.9855 3.84912 11.7864 7.79545 11.7864H11.8866H12.9149L12.4737 10.8575C12.0332 9.93017 11.7864 8.89255 11.7864 7.79545C11.7864 3.84912 14.9855 0.65 18.9318 0.65C20.9312 0.65 22.738 1.47043 24.0358 2.79472L24.5 3.26845L24.9642 2.79472C26.262 1.47043 28.0688 0.65 30.0682 0.65C34.0145 0.65 37.2136 3.84912 37.2136 7.79545V11.8866V12.915L38.1426 12.4737C39.0698 12.0332 40.1074 11.7864 41.2045 11.7864C45.1509 11.7864 48.35 14.9855 48.35 18.9318C48.35 20.9312 47.5296 22.738 46.2053 24.0357ZM22.2727 11.7864H22.9227V11.1364V7.79545C22.9227 5.59132 21.1359 3.80455 18.9318 3.80455C16.7277 3.80455 14.9409 5.59133 14.9409 7.79545C14.9409 9.99958 16.7277 11.7864 18.9318 11.7864H22.2727ZM33.4091 22.9227H34.0591V22.2727V7.79545C34.0591 5.59132 32.2722 3.80455 30.0682 3.80455C27.8641 3.80455 26.0773 5.59132 26.0773 7.79545V22.2727V22.9227H26.7273H33.4091ZM22.2727 22.9227H22.9227V22.2727V15.5909V14.9409H22.2727H7.79545C5.59133 14.9409 3.80455 16.7277 3.80455 18.9318C3.80455 21.1359 5.59132 22.9227 7.79545 22.9227H22.2727ZM37.2136 22.2727V22.9227H37.8636H41.2045C43.4086 22.9227 45.1955 21.1359 45.1955 18.9318C45.1955 16.7277 43.4086 14.9409 41.2045 14.9409C39.0005 14.9409 37.2136 16.7277 37.2136 18.9318V22.2727ZM26.7273 26.0773H26.0773V26.7273V33.4091V34.0591H26.7273H41.2045C43.4086 34.0591 45.1955 32.2722 45.1955 30.0682C45.1955 27.8641 43.4086 26.0773 41.2045 26.0773H26.7273ZM26.7273 37.2136H26.0773V37.8636V41.2045C26.0773 43.4086 27.8641 45.1955 30.0682 45.1955C32.2722 45.1955 34.0591 43.4086 34.0591 41.2045C34.0591 39.0005 32.2722 37.2136 30.0682 37.2136H26.7273ZM22.9227 26.7273V26.0773H22.2727H15.5909H14.9409V26.7273V41.2045C14.9409 43.4086 16.7277 45.1955 18.9318 45.1955C21.1359 45.1955 22.9227 43.4086 22.9227 41.2045V26.7273ZM11.7864 26.7273V26.0773H11.1364H7.79545C5.59132 26.0773 3.80455 27.8641 3.80455 30.0682C3.80455 32.2722 5.59132 34.0591 7.79545 34.0591C9.99959 34.0591 11.7864 32.2722 11.7864 30.0682V26.7273Z" fill="#F5F5F5" fill-opacity="0.7" stroke="black" stroke-width="1.3"/>
</svg>
